<svg xmlns="http://www.w3.org/2000/svg" viewBox="0 0 500 500"><g id="freepik--background-complete--inject-119"><rect y="382.4" width="500" height="0.25" style="fill:#ebebeb"></rect><rect x="102.02" y="398.49" width="33.12" height="0.25" style="fill:#ebebeb"></rect><rect x="171.14" y="390.92" width="43.55" height="0.25" style="fill:#ebebeb"></rect><rect x="52.46" y="389.21" width="48.56" height="0.25" style="fill:#ebebeb"></rect><rect x="247.61" y="392.59" width="34.29" height="0.25" style="fill:#ebebeb"></rect><rect x="442.46" y="392.59" width="7.44" height="0.25" style="fill:#ebebeb"></rect><rect x="290.8" y="392.59" width="48.57" height="0.25" style="fill:#ebebeb"></rect><rect x="326.62" y="396.81" width="93.68" height="0.25" style="fill:#ebebeb"></rect><path d="M237,337.8H43.92a5.71,5.71,0,0,1-5.71-5.71V60.66A5.71,5.71,0,0,1,43.92,55H237a5.71,5.71,0,0,1,5.71,5.71V332.09A5.71,5.71,0,0,1,237,337.8ZM43.92,55.2a5.47,5.47,0,0,0-5.46,5.46V332.09a5.47,5.47,0,0,0,5.46,5.46H237a5.47,5.47,0,0,0,5.46-5.46V60.66A5.47,5.47,0,0,0,237,55.2Z" style="fill:#ebebeb"></path><path d="M453.31,337.8H260.21a5.72,5.72,0,0,1-5.71-5.71V60.66A5.72,5.72,0,0,1,260.21,55h193.1A5.71,5.71,0,0,1,459,60.66V332.09A5.71,5.71,0,0,1,453.31,337.8ZM260.21,55.2a5.47,5.47,0,0,0-5.46,5.46V332.09a5.47,5.47,0,0,0,5.46,5.46h193.1a5.47,5.47,0,0,0,5.46-5.46V60.66a5.47,5.47,0,0,0-5.46-5.46Z" style="fill:#ebebeb"></path><path d="M364.45,183c-6.83,4-20.35,1.57-42.51-1.88-13-2-19.47,2.12-28.48,5.87-3.61,1.5-19.46,6.72,1.24,6.72l15.1-.05h100c31.91,0,2.23-5.7-2.89-7.88l-.26-.12C391.44,179,371.28,179,364.45,183Z" style="fill:#f5f5f5"></path><path d="M331.84,104.49h96.45c8.44,0-.37-5.56-12-6.67s-22.2-9.3-37.35-11.56-15.57,10-35.47,9.89C327.37,96.06,315.4,104.49,331.84,104.49Z" style="fill:#f5f5f5"></path><path d="M97.86,251.13c-3,11.56-17,1.73-23.88-6.77,6-3.75,15.23-5.22,20.46-2Q90.54,236,86.11,230a10.38,10.38,0,0,1,0,2.51c-1.51,11.88-16.69,3.81-24.64-3.85,5.48-4.48,14.48-7.07,20.11-4.5-1.12-1.39-2.27-2.77-3.43-4.14-8.44.2-8.49-12.62-5.31-20.49,8.17,5.72,14.48,18.25,7.53,20.18q4.55,5.4,8.63,11.12c-.88-6,2.9-14.66,8.06-19.53,8.74,11.58,10.39,30.71-1.54,26.62a12.28,12.28,0,0,1-2.34-1q4.14,6.32,7.71,12.92c-.11-6.05,4.74-14.12,10.47-18.31,7.15,12.49,6.39,31.61-4.91,26.11a12.34,12.34,0,0,1-2.2-1.26q3.3,6.74,6,13.72c.66-6,6.48-13.38,12.69-16.82,5.52,13.21,2.39,32.09-8.14,25.24a12.38,12.38,0,0,1-2-1.52q2.43,7.08,4.26,14.35c1.39-5.87,8.09-12.48,14.67-15.12,3.84,13.78-1.59,32.19-11.2,24a12.26,12.26,0,0,1-1.82-1.76q1.53,7.35,2.46,14.82c2.1-5.68,9.57-11.42,16.43-13.22,2.1,14.18-5.58,31.89-14.1,22.56a11.57,11.57,0,0,1-1.58-2c.4,5,.6,10.06.58,15.12,2.8-5.42,10.92-10.21,18-11.14.33,14.42-9.54,31.23-16.82,20.78a12.55,12.55,0,0,1-1.32-2.18q-.33,7.47-1.3,15a1.05,1.05,0,0,1-1.09,1,1.06,1.06,0,0,1-.79-1.23,178.41,178.41,0,0,0,1.46-24.59,10,10,0,0,1-1.42,2.08c-8.17,8.82-15.78-6.76-17.73-17.45,7.06-.42,15.87,2.68,18.93,8q-.39-7.47-1.4-14.85a10.24,10.24,0,0,1-1.15,2.22c-7,9.69-16.5-4.66-19.75-15,6.95-1.3,16.07.67,19.77,5.56q-1.31-7.32-3.22-14.49a9.87,9.87,0,0,1-.87,2.34c-5.76,10.45-16.94-2.53-21.44-12.36,6.74-2.16,16-1.34,20.3,3q-2.2-7.08-5-13.95a10.16,10.16,0,0,1-.58,2.43c-4.42,11.07-17.11-.4-22.81-9.62,6.41-3,15.74-3.31,20.52.51q-3.06-6.75-6.68-13.25A10.05,10.05,0,0,1,97.86,251.13Z" style="fill:#f5f5f5"></path><path d="M305.66,256.41c-3.14,6.82-10.74-.81-14.05-6.83,4.13-1.67,10-1.56,12.89,1q-1.71-4.36-3.79-8.59a6.48,6.48,0,0,1-.25,1.56c-2.24,7.19-10.76.52-14.84-5.1,3.89-2.17,9.75-2.78,12.95-.57-.54-1-1.09-2-1.66-2.95-5.25-.8-3.87-8.75-1-13.28,4.43,4.45,7,12.91,2.44,13.33q2.22,3.85,4.12,7.85c.12-3.83,3.41-8.77,7.14-11.22,4.14,8.15,3.05,20.18-3.88,16.33a6.74,6.74,0,0,1-1.34-.87q1.86,4.36,3.34,8.86c.6-3.76,4.5-8.23,8.51-10.19,3.06,8.52.48,20.29-5.92,15.63a7,7,0,0,1-1.22-1c.86,3,1.6,6.08,2.21,9.17,1.07-3.65,5.49-7.58,9.71-9,2,8.79-2.05,20.15-7.82,14.74a7.76,7.76,0,0,1-1.09-1.16q.74,4.65,1.06,9.36c1.51-3.49,6.39-6.84,10.76-7.75.86,9-4.54,19.76-9.59,13.66a7.52,7.52,0,0,1-.94-1.29q.15,4.72-.11,9.45c1.93-3.28,7.19-6,11.64-6.37-.26,9-7,19.14-11.22,12.42a7,7,0,0,1-.76-1.41c-.31,3.15-.74,6.3-1.31,9.43,2.33-3.05,7.89-5.12,12.35-4.92-1.38,9-9.35,18.29-12.7,11a6.88,6.88,0,0,1-.58-1.5c-.69,3.06-1.51,6.11-2.46,9.13a.6.6,0,1,1-1.13-.36,112.28,112.28,0,0,0,3.61-15.07,6.55,6.55,0,0,1-1.11,1.13c-6,4.56-9-5.92-9.06-12.76,4.42.51,9.53,3.41,10.84,7.06q.58-4.68.77-9.36a6,6,0,0,1-1,1.25c-5.41,5.23-9.7-4.7-10.58-11.45,4.45-.05,9.88,2.18,11.63,5.62q0-4.68-.39-9.33a6.38,6.38,0,0,1-.8,1.35c-4.72,5.84-10.22-3.43-11.92-10,4.41-.6,10.08.94,12.24,4.12-.39-3.08-.9-6.15-1.55-9.19a5.91,5.91,0,0,1-.62,1.44c-4,6.37-10.56-2.13-13.08-8.48,4.31-1.13,10.12-.31,12.67,2.58-.77-3-1.67-6-2.69-8.94A6.31,6.31,0,0,1,305.66,256.41Z" style="fill:#f5f5f5"></path><path d="M51.61,335.25a74.39,74.39,0,0,1,21.06,10.24c-3.31-20,6.89-35.76,6.89-35.76s13.81,12.47,21,29.3a43.08,43.08,0,0,1,7.21-6.77,67.48,67.48,0,0,1-1.87-10.08,95.49,95.49,0,0,1,26.91,13.07c-4.23-25.54,8.79-45.67,8.79-45.67s17.63,15.93,26.82,37.43a51.74,51.74,0,0,1,11.93-10.49s9.3,15.78,10.19,32.9a62.67,62.67,0,0,1,18.76-1.3s-.37,20.35-13.78,31.45a32.4,32.4,0,0,1-4.05,2.83H68.81a63.59,63.59,0,0,1-15.71-15,39.72,39.72,0,0,1,10.82-1.67C53,351.77,51.61,335.25,51.61,335.25Z" style="fill:#f0f0f0"></path><circle cx="149.71" cy="123.09" r="38.21" style="fill:#fafafa"></circle><path d="M168.2,125.38c-6.84-.66-13.1-5.49-22-6.82-4.42-.66-7,1-9.62,2.56-3.27,2-7.28,3-12.32,2.88a64,64,0,0,1-19.4-3.56c-5.65-1.92-11.54-4.22-16-3.4-8.3,1.52-8.53,7-15.4,7.78s-8.1,4.49-2.42,4.49H175.26C180.24,129.31,175,126,168.2,125.38Z" style="fill:#f5f5f5"></path><path d="M375.89,287.78c-12-10,22.59-79.66,53.22-84.19s18.45,73.8,6,83.1C421,297.19,389,298.64,375.89,287.78Z" style="fill:#f5f5f5"></path><path d="M412.15,262.74h-9A498.42,498.42,0,0,0,383.33,382.4h9A497.93,497.93,0,0,1,412.15,262.74Z" style="fill:#e6e6e6"></path><path d="M341.42,382.37s26.06-20.53,35.4-42c13.53-31.14-34,6.51-41.86-1.5s37.5-45.09,13.08-52.31-39.89,20-57.07,39.93c-28.13,32.64-1.87-50.27-44.18-10.47-27.58,25.94-27.64,66.5-27.64,66.5Z" style="fill:#ebebeb"></path><path d="M263.38,257.14c18.22-13.2-11.13-105.44-50.61-111.43s-41.81,97.69-27.51,110C201.41,269.6,243.53,271.52,263.38,257.14Z" style="fill:#e6e6e6"></path><path d="M222.08,224h15.38a496.79,496.79,0,0,1-14.61,158.4H207.48A496.5,496.5,0,0,0,222.08,224Z" style="fill:#f5f5f5"></path></g><g id="freepik--Shadow--inject-119"><ellipse id="freepik--path--inject-119" cx="250" cy="416.24" rx="193.89" ry="11.32" style="fill:#f5f5f5"></ellipse></g><g id="freepik--Jungle--inject-119"><path d="M359.92,270.1c3,11.56,17,1.73,23.87-6.77-6-3.76-15.22-5.23-20.45-2q3.89-6.35,8.33-12.39a10.37,10.37,0,0,0-.06,2.51c1.51,11.89,16.7,3.81,24.64-3.85-5.48-4.47-14.48-7.06-20.1-4.49q1.68-2.1,3.43-4.14c8.43.19,8.49-12.63,5.31-20.49-8.18,5.72-14.48,18.25-7.53,20.17q-4.55,5.42-8.63,11.13c.88-6-2.9-14.66-8.06-19.54-8.74,11.59-10.39,30.72,1.54,26.63a12.18,12.18,0,0,0,2.33-1q-4.12,6.3-7.7,12.92c.11-6.05-4.74-14.12-10.47-18.31C339.21,263,340,282.1,351.28,276.6a12.24,12.24,0,0,0,2.19-1.26q-3.29,6.74-6,13.72c-.65-6-6.47-13.39-12.68-16.83-5.52,13.22-2.4,32.1,8.14,25.24a12.21,12.21,0,0,0,2-1.51q-2.43,7.08-4.26,14.35c-1.39-5.88-8.09-12.48-14.68-15.12-3.83,13.78,1.6,32.18,11.21,24.05a12.17,12.17,0,0,0,1.81-1.76c-1,4.89-1.84,9.84-2.45,14.82-2.1-5.69-9.57-11.42-16.43-13.22-2.11,14.18,5.57,31.89,14.1,22.55a12.45,12.45,0,0,0,1.58-2q-.61,7.52-.59,15.12c-2.8-5.43-10.92-10.21-18-11.15-.33,14.43,9.54,31.23,16.81,20.79a11.69,11.69,0,0,0,1.32-2.19q.34,7.47,1.31,15a1,1,0,1,0,1.87-.24,178.27,178.27,0,0,1-1.46-24.58,10.46,10.46,0,0,0,1.43,2.08c8.17,8.81,15.77-6.76,17.73-17.45-7.06-.43-15.87,2.68-18.93,8,.26-5,.72-9.94,1.4-14.85a9.82,9.82,0,0,0,1.15,2.22c7,9.69,16.5-4.66,19.75-15-7-1.3-16.07.66-19.77,5.55q1.31-7.31,3.22-14.48a10.2,10.2,0,0,0,.87,2.34c5.76,10.45,16.94-2.53,21.44-12.36-6.74-2.16-16-1.34-20.3,3q2.19-7.08,5-13.95a10,10,0,0,0,.57,2.42c4.43,11.08,17.12-.39,22.82-9.61-6.42-3-15.74-3.31-20.53.51q3.06-6.76,6.69-13.25A10.05,10.05,0,0,0,359.92,270.1Z" style="fill:#6EA285"></path><path d="M359.92,270.1c3,11.56,17,1.73,23.87-6.77-6-3.76-15.22-5.23-20.45-2q3.89-6.35,8.33-12.39a10.37,10.37,0,0,0-.06,2.51c1.51,11.89,16.7,3.81,24.64-3.85-5.48-4.47-14.48-7.06-20.1-4.49q1.68-2.1,3.43-4.14c8.43.19,8.49-12.63,5.31-20.49-8.18,5.72-14.48,18.25-7.53,20.17q-4.55,5.42-8.63,11.13c.88-6-2.9-14.66-8.06-19.54-8.74,11.59-10.39,30.72,1.54,26.63a12.18,12.18,0,0,0,2.33-1q-4.12,6.3-7.7,12.92c.11-6.05-4.74-14.12-10.47-18.31C339.21,263,340,282.1,351.28,276.6a12.24,12.24,0,0,0,2.19-1.26q-3.29,6.74-6,13.72c-.65-6-6.47-13.39-12.68-16.83-5.52,13.22-2.4,32.1,8.14,25.24a12.21,12.21,0,0,0,2-1.51q-2.43,7.08-4.26,14.35c-1.39-5.88-8.09-12.48-14.68-15.12-3.83,13.78,1.6,32.18,11.21,24.05a12.17,12.17,0,0,0,1.81-1.76c-1,4.89-1.84,9.84-2.45,14.82-2.1-5.69-9.57-11.42-16.43-13.22-2.11,14.18,5.57,31.89,14.1,22.55a12.45,12.45,0,0,0,1.58-2q-.61,7.52-.59,15.12c-2.8-5.43-10.92-10.21-18-11.15-.33,14.43,9.54,31.23,16.81,20.79a11.69,11.69,0,0,0,1.32-2.19q.34,7.47,1.31,15a1,1,0,1,0,1.87-.24,178.27,178.27,0,0,1-1.46-24.58,10.46,10.46,0,0,0,1.43,2.08c8.17,8.81,15.77-6.76,17.73-17.45-7.06-.43-15.87,2.68-18.93,8,.26-5,.72-9.94,1.4-14.85a9.82,9.82,0,0,0,1.15,2.22c7,9.69,16.5-4.66,19.75-15-7-1.3-16.07.66-19.77,5.55q1.31-7.31,3.22-14.48a10.2,10.2,0,0,0,.87,2.34c5.76,10.45,16.94-2.53,21.44-12.36-6.74-2.16-16-1.34-20.3,3q2.19-7.08,5-13.95a10,10,0,0,0,.57,2.42c4.43,11.08,17.12-.39,22.82-9.61-6.42-3-15.74-3.31-20.53.51q3.06-6.76,6.69-13.25A10.05,10.05,0,0,0,359.92,270.1Z" style="fill:#fff;opacity:0.7000000000000001"></path><path d="M141.17,412.23H155a143.35,143.35,0,0,0,81.89-25.29c14.37-10,25-21.63,19.71-32.35-12.89-26.09-41.13,23.33-52.21,9.29s50.55-30,40.29-46.1-55.3,36.81-68.17,13.22,60.94-20.73,50.67-38.24S169.76,314.2,158,299.9s60.05-22.16,44-37.88-52.18,39.31-69.7,27.88,65.41-33.78,36.82-44.23-50.46,30.5-64.73,27.35,30.77-25.71,18.26-32.83S86.13,238.93,70,260.83c-18.56,25.28-25.73,53-13.22,64.45s18.45-26.39,30.91-21c26.45,11.37-24.84,33.89-17,50s34-30.37,48.78-23.94c27.7,12-53.67,41.51-38.6,50.21,17.33,10,58.26-34.13,71.58-18.76,19.89,23-53.35,13.15-51.2,32.38S141.17,412.23,141.17,412.23Z" style="fill:#6EA285"></path><path d="M141.17,412.23H155a143.35,143.35,0,0,0,81.89-25.29c14.37-10,25-21.63,19.71-32.35-12.89-26.09-41.13,23.33-52.21,9.29s50.55-30,40.29-46.1-55.3,36.81-68.17,13.22,60.94-20.73,50.67-38.24S169.76,314.2,158,299.9s60.05-22.16,44-37.88-52.18,39.31-69.7,27.88,65.41-33.78,36.82-44.23-50.46,30.5-64.73,27.35,30.77-25.71,18.26-32.83S86.13,238.93,70,260.83c-18.56,25.28-25.73,53-13.22,64.45s18.45-26.39,30.91-21c26.45,11.37-24.84,33.89-17,50s34-30.37,48.78-23.94c27.7,12-53.67,41.51-38.6,50.21,17.33,10,58.26-34.13,71.58-18.76,19.89,23-53.35,13.15-51.2,32.38S141.17,412.23,141.17,412.23Z" style="fill:#fff;opacity:0.4"></path><path d="M126.89,297.82c3,9.61-11.44,8.78-20.12,5.72,2.64-5.34,8.6-10.49,13.77-10.5q-5.6-2.84-11.46-5.19a8.42,8.42,0,0,1,1.16,1.78c4.18,9.19-10.28,10.12-19.37,8.15,1.94-5.63,7.25-11.47,12.42-12.12-1.42-.51-2.86-1-4.3-1.46-6,3.88-11.68-5.28-12.88-12.33,8.39.48,18.47,6.67,14.33,11.13q5.67,1.86,11.12,4.15c-3.29-3.93-4.42-11.8-2.88-17.58,11.4,4.44,21.06,17.42,10.7,19.77a9.88,9.88,0,0,1-2.11.33q5.76,2.7,11.24,5.85c-2.75-4.29-2.85-12.22-.6-17.76,10.66,5.77,18.59,19.82,8.05,20.89a10.38,10.38,0,0,1-2.13.07q5.34,3.38,10.39,7.17c-2.19-4.59-1.29-12.47,1.64-17.68,9.8,7,15.93,21.94,5.34,21.7a10.78,10.78,0,0,1-2.12-.19c3.26,2.66,6.4,5.47,9.42,8.4-1.61-4.83.26-12.53,3.82-17.34,8.85,8.17,13.11,23.77,2.62,22.2a10.12,10.12,0,0,1-2.08-.46q4.35,4.59,8.32,9.54c-1-5,1.81-12.43,5.93-16.76,7.79,9.23,10.13,25.33-.11,22.42a10.14,10.14,0,0,1-2-.72q3.77,5.12,7.12,10.57c-.39-5.12,3.31-12.15,7.93-15.94,6.63,10.19,7,26.61-2.84,22.35a10.77,10.77,0,0,1-1.92-1q3.07,5.5,5.7,11.3a.81.81,0,1,1-1.45.66,149,149,0,0,0-9.85-18.27,8.6,8.6,0,0,1-.1,2.12c-1.95,9.94-14.3,2.15-20.44-4.65,4.87-3.44,12.56-5.11,17.12-2.63q-3.58-5.19-7.57-10a8.81,8.81,0,0,1,.15,2.1c-.73,10.06-13.89,4-20.79-2,4.4-4,11.81-6.65,16.63-4.78q-4.18-4.66-8.72-9a9,9,0,0,1,.41,2.06c.5,10-13.27,5.7-20.85.64,3.87-4.53,10.9-8.06,15.9-6.81-3.14-2.73-6.4-5.33-9.75-7.8a8.54,8.54,0,0,1,.66,2c1.73,9.9-12.44,7.3-20.62,3.21,3.28-5,9.82-9.34,14.94-8.73Q131.47,299,126,295.92A9.06,9.06,0,0,1,126.89,297.82Z" style="fill:#6EA285"></path><path d="M126.89,297.82c3,9.61-11.44,8.78-20.12,5.72,2.64-5.34,8.6-10.49,13.77-10.5q-5.6-2.84-11.46-5.19a8.42,8.42,0,0,1,1.16,1.78c4.18,9.19-10.28,10.12-19.37,8.15,1.94-5.63,7.25-11.47,12.42-12.12-1.42-.51-2.86-1-4.3-1.46-6,3.88-11.68-5.28-12.88-12.33,8.39.48,18.47,6.67,14.33,11.13q5.67,1.86,11.12,4.15c-3.29-3.93-4.42-11.8-2.88-17.58,11.4,4.44,21.06,17.42,10.7,19.77a9.88,9.88,0,0,1-2.11.33q5.76,2.7,11.24,5.85c-2.75-4.29-2.85-12.22-.6-17.76,10.66,5.77,18.59,19.82,8.05,20.89a10.38,10.38,0,0,1-2.13.07q5.34,3.38,10.39,7.17c-2.19-4.59-1.29-12.47,1.64-17.68,9.8,7,15.93,21.94,5.34,21.7a10.78,10.78,0,0,1-2.12-.19c3.26,2.66,6.4,5.47,9.42,8.4-1.61-4.83.26-12.53,3.82-17.34,8.85,8.17,13.11,23.77,2.62,22.2a10.12,10.12,0,0,1-2.08-.46q4.35,4.59,8.32,9.54c-1-5,1.81-12.43,5.93-16.76,7.79,9.23,10.13,25.33-.11,22.42a10.14,10.14,0,0,1-2-.72q3.77,5.12,7.12,10.57c-.39-5.12,3.31-12.15,7.93-15.94,6.63,10.19,7,26.61-2.84,22.35a10.77,10.77,0,0,1-1.92-1q3.07,5.5,5.7,11.3a.81.81,0,1,1-1.45.66,149,149,0,0,0-9.85-18.27,8.6,8.6,0,0,1-.1,2.12c-1.95,9.94-14.3,2.15-20.44-4.65,4.87-3.44,12.56-5.11,17.12-2.63q-3.58-5.19-7.57-10a8.81,8.81,0,0,1,.15,2.1c-.73,10.06-13.89,4-20.79-2,4.4-4,11.81-6.65,16.63-4.78q-4.18-4.66-8.72-9a9,9,0,0,1,.41,2.06c.5,10-13.27,5.7-20.85.64,3.87-4.53,10.9-8.06,15.9-6.81-3.14-2.73-6.4-5.33-9.75-7.8a8.54,8.54,0,0,1,.66,2c1.73,9.9-12.44,7.3-20.62,3.21,3.28-5,9.82-9.34,14.94-8.73Q131.47,299,126,295.92A9.06,9.06,0,0,1,126.89,297.82Z" style="fill:#fff;opacity:0.7000000000000001"></path><path d="M178.29,317.81c9.82-40.32,37.16,78.49,60.5,25.7,28.67-64.86,87.58-86.59,71.83-36.95s5.26,66.84,62.38,11.25c41.42-40.31-23.38,80.55,1.47,76,21-3.89,50.56-12.52,43.81,5.69-3,8.15-9.61,12.66-17.61,12.67L217,412.22c-15.13,0-31.36-16.18-36.14-36C176.54,358.32,173.73,336.58,178.29,317.81Z" style="fill:#6EA285"></path><g style="opacity:0.30000000000000004"><path d="M178.29,317.81c9.82-40.32,37.16,78.49,60.5,25.7,28.67-64.86,87.58-86.59,71.83-36.95s5.26,66.84,62.38,11.25c41.42-40.31-23.38,80.55,1.47,76,21-3.89,50.56-12.52,43.81,5.69-3,8.15-9.61,12.66-17.61,12.67L217,412.22c-15.13,0-31.36-16.18-36.14-36C176.54,358.32,173.73,336.58,178.29,317.81Z"></path></g><path d="M321.49,384.71s-11.55-10.85,6.8-26.75c17-14.76,41.34-.25,41.34-.25s.39-17.16,24-19.94,9.6,21.58,9.6,21.58c20.19-8.67,17.34,1.28,13.33,8.7,5-2.25,10.42-3,13,2.4,5.88,12.26-8.67,20.63-8.67,20.63s13.07,4.22,8.35,13.9a13.87,13.87,0,0,1-12.55,7.59H325.23c-16.51,0-19.72-23.51-3.78-27.85Z" style="fill:#6EA285"></path><path d="M321.49,384.71s-11.55-10.85,6.8-26.75c17-14.76,41.34-.25,41.34-.25s.39-17.16,24-19.94,9.6,21.58,9.6,21.58c20.19-8.67,17.34,1.28,13.33,8.7,5-2.25,10.42-3,13,2.4,5.88,12.26-8.67,20.63-8.67,20.63s13.07,4.22,8.35,13.9a13.87,13.87,0,0,1-12.55,7.59H325.23c-16.51,0-19.72-23.51-3.78-27.85Z" style="fill:#fff;opacity:0.30000000000000004"></path></g><g id="freepik--Character--inject-119"><path d="M272,159.33l1.84,14.23c.64,4.71,1.31,9.46,2.23,13.86l.58,2.51a2.09,2.09,0,0,0,.51.94,7.72,7.72,0,0,0,4.07,1.67c3.86.67,8.7.3,13.14-.26l1.93,5.8a41.32,41.32,0,0,1-7.46,2.74A32.77,32.77,0,0,1,280.6,202a22.18,22.18,0,0,1-4.67-.48,15,15,0,0,1-5.05-2.15,12.56,12.56,0,0,1-4.13-4.63,15.37,15.37,0,0,1-1-2.51c-.21-.64-.45-1.31-.63-1.93a130.87,130.87,0,0,1-3.37-14.88c-.84-4.93-1.51-9.79-2-14.8Z" style="fill:#ffc3bd"></path><path d="M254.79,149.4c-4,6.31,4.92,29.13,4.92,29.13l17-5.15a95.61,95.61,0,0,0-5.15-19.72C267.8,144.49,259.16,142.48,254.79,149.4Z" style="fill:#263238"></path><path d="M267.05,150.52c1.84,8.54,4.56,28.36.43,60.4l-41.65,2.86c-.66-5.82,1.29-33.82-2.51-61.75a7.92,7.92,0,0,1,7.1-9c1.81-.17,3.75-.3,5.67-.35a155.25,155.25,0,0,1,17.74.44,70.81,70.81,0,0,1,7.16,1.24A8,8,0,0,1,267.05,150.52Z" style="fill:#263238"></path><path d="M238.34,122.78c1,5.74,1.83,16.22-2.25,19.93,0,0,2.15,5.85,12.75,6.11,9.69.24,5-5.67,5-5.67-6.33-1.67-6.05-6.39-4.83-10.8Z" style="fill:#ffc3bd"></path><path d="M242.68,126.69l6.31,5.65a18.74,18.74,0,0,0-.62,3.14c-2.14,1.92-5.7-3.16-5.9-5.71A8.73,8.73,0,0,1,242.68,126.69Z" style="opacity:0.2"></path><path d="M236.5,142.3c-1.7-1.22-6.21-.74-10.3.06a8.63,8.63,0,0,0-6.92,9.34C220.54,164.42,222.82,190,222,201c6.49,6.46,18.86,8.54,18.86,8.54S247.34,150.14,236.5,142.3Z" style="fill:#6EA285"></path><path d="M254.94,142.24a18.81,18.81,0,0,1,8,1.34,8.15,8.15,0,0,1,5.09,5.71c1.95,7.92,5.59,27.3,2.38,52.41-6.49,6.46-10.26,5.16-10.26,5.16s.74-48.44-6.3-62.68A1.36,1.36,0,0,1,254.94,142.24Z" style="fill:#6EA285"></path><path d="M292.49,192.88l5.11-2.58-1.21,8.8s-4.52,2.06-6.21-2.32Z" style="fill:#ffc3bd"></path><path d="M258.36,107.67c3.95,2.43,2.2,15.8-2.4,12.08S255.78,106.09,258.36,107.67Z" style="fill:#263238"></path><path d="M237.87,114.18c.28,7.74.06,12.28,3.86,16.35,5.73,6.11,15.35,2.8,17.39-4.87,1.83-6.9,1.05-18.4-6.44-21.66A10.56,10.56,0,0,0,237.87,114.18Z" style="fill:#ffc3bd"></path><path d="M242.61,114.4a8.24,8.24,0,0,1-5.51,5.33c-3.07-4.59-4.26-6.48-1.44-9.7-1.56-3.16,14.53-10.45,21-7s2.6,6.85-.29,7.61a20.78,20.78,0,0,1-7.59-.08A5.61,5.61,0,0,0,242.61,114.4Z" style="fill:#263238"></path><path d="M233.5,120.44a7.35,7.35,0,0,0,4,3.91c2.41.93,3.86-1.16,3.4-3.56-.42-2.16-2.17-5.25-4.68-5.16S232.57,118.24,233.5,120.44Z" style="fill:#ffc3bd"></path><path d="M267.48,210.92s19.79,60.86,24.58,84.19c5,24.27,18.38,99.06,18.38,99.06l-11.79,4.6s-23-72.72-29.3-96.2C262.48,277,240.1,212.8,240.1,212.8Z" style="fill:#263238"></path><path d="M249.1,216.78l-2.66,14.43c4.24,12.44,9.92,29.3,14.78,44.48A198.11,198.11,0,0,0,249.1,216.78Z" style="opacity:0.30000000000000004"></path><path d="M252.7,211.94s.84,63.88-2.48,86.51c-3.64,24.77-24.93,99.26-24.93,99.26H211s14.65-71.07,16-95.45c1.49-26.45-1.18-88.48-1.18-88.48Z" style="fill:#263238"></path><path d="M258.8,141.36s4,33.67-34.58,75.42v4.39s16.54-11.08,28.58-37.49c13.26-29.12,9.44-40.68,9.44-40.68Z" style="fill:#6EA285"></path><path d="M258.8,141.36s4,33.67-34.58,75.42v4.39s16.54-11.08,28.58-37.49c13.26-29.12,9.44-40.68,9.44-40.68Z" style="opacity:0.30000000000000004"></path><path d="M223.51,213.25c-2.65.35-3.79,3.37-4.49,7.84s-3.44,9.93,4.86,13.12,10.65-.6,11.34-6.11S240.78,211,223.51,213.25Z" style="fill:#6EA285"></path><path d="M235.08,218.87s-4.85,4.42-10.21,3.55-5.1-3.93-5.1-3.93-1.56,3.79,4.71,5.27S235.08,218.87,235.08,218.87Z" style="opacity:0.30000000000000004"></path><ellipse cx="223.5" cy="219.64" rx="0.56" ry="1.25" style="opacity:0.30000000000000004"></ellipse><polygon points="310.44 150.98 294.31 158.08 272.61 154.94 250.66 147.7 240.15 193.69 230.53 237.13 256.22 237.61 283.4 236.17 295.2 229.72 296.44 191.45 310.44 150.98" style="fill:#6EA285"></polygon><polygon points="310.44 150.98 294.31 158.08 272.61 154.94 250.66 147.7 240.15 193.69 230.53 237.13 256.22 237.61 283.4 236.17 295.2 229.72 296.44 191.45 310.44 150.98" style="fill:#fff;opacity:0.9"></polygon><polygon points="254.98 149.7 240.8 192.99 261.09 197.69 276.64 157.78 254.98 149.7" style="fill:#6EA285"></polygon><polygon points="298.2 161.75 283.73 199.47 261.09 197.69 276.64 157.78 298.2 161.75" style="fill:#6EA285"></polygon><polygon points="298.2 161.75 283.73 199.47 261.09 197.69 276.64 157.78 298.2 161.75" style="opacity:0.1"></polygon><polygon points="298.2 161.75 283.73 199.47 299.05 195.18 314.6 155.28 298.2 161.75" style="fill:#6EA285"></polygon><polygon points="298.2 161.75 283.73 199.47 299.05 195.18 314.6 155.28 298.2 161.75" style="opacity:0.2"></polygon><polygon points="234.01 238.41 240.8 192.99 261.09 197.69 257.09 239.76 234.01 238.41" style="fill:#6EA285"></polygon><polygon points="284.3 239.36 283.73 199.47 261.09 197.69 257.09 239.76 284.3 239.36" style="fill:#6EA285"></polygon><polygon points="284.3 239.36 283.73 199.47 261.09 197.69 257.09 239.76 284.3 239.36" style="fill:#fff;opacity:0.1"></polygon><polygon points="284.3 239.36 283.73 199.47 299.05 195.18 297.59 226.75 284.3 239.36" style="fill:#6EA285"></polygon><path d="M249.54,116.63c0,.63.3,1.14.71,1.15s.76-.49.78-1.12-.31-1.14-.72-1.15S249.55,116,249.54,116.63Z" style="fill:#263238"></path><path d="M256.65,116.8c0,.63.31,1.15.72,1.16s.75-.49.77-1.12-.31-1.15-.72-1.16S256.67,116.17,256.65,116.8Z" style="fill:#263238"></path><path d="M254.38,117.06a22.54,22.54,0,0,0,2.87,5.46,3.63,3.63,0,0,1-3,.49Z" style="fill:#ed847e"></path><path d="M252.36,124.7a.19.19,0,1,0,0-.37,5,5,0,0,1-4-2,.18.18,0,0,0-.25-.06.17.17,0,0,0-.06.25A5.25,5.25,0,0,0,252.36,124.7Z" style="fill:#263238"></path><path d="M247.45,114.28a.37.37,0,0,0,.3-.14,2.9,2.9,0,0,1,2.4-1.17.38.38,0,0,0,.4-.34.37.37,0,0,0-.33-.4,3.66,3.66,0,0,0-3.05,1.45.37.37,0,0,0,.06.52A.35.35,0,0,0,247.45,114.28Z" style="fill:#263238"></path><path d="M259.91,114.36a.47.47,0,0,0,.16,0,.38.38,0,0,0,.15-.5,3.67,3.67,0,0,0-2.74-2,.37.37,0,0,0-.4.34.38.38,0,0,0,.34.4h0a2.93,2.93,0,0,1,2.15,1.58A.36.36,0,0,0,259.91,114.36Z" style="fill:#263238"></path><path d="M226.47,158.12,222,173.29c-.73,2.53-1.4,5.05-2.07,7.55s-1.22,5-1.65,7.35l-.26,1.56c0,.14-.05.19-.08.21s-.12.22.3.66a7.53,7.53,0,0,0,2,1.36,20.12,20.12,0,0,0,3.06,1.19,77.66,77.66,0,0,0,14.83,2.57l.41,6.1a58.2,58.2,0,0,1-8.48.94,48.45,48.45,0,0,1-8.77-.4,29.37,29.37,0,0,1-4.66-1.08,16.9,16.9,0,0,1-5-2.5,12.4,12.4,0,0,1-2.46-2.41,11,11,0,0,1-1.79-3.43,11.63,11.63,0,0,1-.5-3.77v-.43l0-.29,0-.57.09-1.15a125.14,125.14,0,0,1,3.06-16.59c1.32-5.34,2.8-10.53,4.53-15.78Z" style="fill:#ffc3bd"></path><path d="M221.5,145.45c-7.3,1.58-14,27.68-14,27.68l16.07,7.68s6-12.61,8.72-21.85C235.19,149.27,229.32,143.76,221.5,145.45Z" style="fill:#263238"></path><path d="M235.32,196.44l5.44-5.08,2.07,8.86s-4.9,4.28-8.86,1.08Z" style="fill:#ffc3bd"></path><polygon points="247.81 190.53 249.29 198.64 242.83 200.22 240.76 191.36 247.81 190.53" style="fill:#ffc3bd"></polygon><path d="M301.08,408.68l13.48-4.44-5.85-27.33a1.2,1.2,0,0,0-1.51-.83l-15,4.67a1.2,1.2,0,0,0-.77,1.55Z" style="fill:#6EA285"></path><path d="M209.11,407.46,223,409.38l8.12-27.24a1.29,1.29,0,0,0-1.15-1.55l-16.6-1.43a1.06,1.06,0,0,0-1.16.93Z" style="fill:#6EA285"></path><path d="M221.84,403.39l-12,1.6a.78.78,0,0,0-.78.67l-1.27,8.62a1.57,1.57,0,0,0,1.56,1.71c3.84.09,5.86-.07,10.7-.07,3,0,11.63.6,15.71.31s4-4.33,2.32-4.58c-7.71-1.09-11.92-5.8-14.62-7.77A2.5,2.5,0,0,0,221.84,403.39Z" style="fill:#6EA285"></path><path d="M310,398.59l-10,3.58a.85.85,0,0,0-.56.91l1.9,10.74a1.42,1.42,0,0,0,1.9,1.16c3.59-1.36,8.73-3.44,13.26-5.06,5.31-1.9,7.11-2.32,13.33-4.54,3.76-1.35,3.45-5.53,1.75-5.31-7.73,1-11.55.05-19.12-1.55A4.47,4.47,0,0,0,310,398.59Z" style="fill:#6EA285"></path><polygon points="302.54 192.16 301.16 200.06 296.39 199.1 297.6 190.3 302.54 192.16" style="fill:#ffc3bd"></polygon><path d="M265.16,103.86c.17.61-7.91,3.42-18.05,6.26s-18.5,4.65-18.68,4,7.91-3.42,18.06-6.26S265,103.24,265.16,103.86Z" style="fill:#263238"></path><path d="M243.39,96.87c-5.8,1.63-9.35,7.09-7.91,12.2l21-5.9C255.07,98.06,249.2,95.24,243.39,96.87Z" style="fill:#6EA285"></path><path d="M234.88,109.43a8.91,8.91,0,0,1,.06-4.05c3.33-.93,10.92-2,13.56-.33C242.1,107.36,234.88,109.43,234.88,109.43Z" style="fill:#263238"></path><path d="M256.91,102.76a8.74,8.74,0,0,0-3.47-4.59c-3.25,1.2-11.72,5.31-12.76,9.75C247.22,106,256.91,102.76,256.91,102.76Z" style="fill:#263238"></path><path d="M245.62,104.8c-16.56,4.65-17.36,8.75-17.19,9.36-.17-.61,7.91-3.42,18.06-6.26s18.5-4.66,18.67-4C265,103.24,262.18,100.16,245.62,104.8Z" style="fill:#6EA285"></path></g></svg>